<svg xmlns="http://www.w3.org/2000/svg" xmlns:xlink="http://www.w3.org/1999/xlink" viewBox="0 0 56.99 34.49"><defs><style>.cls-1,.cls-113{fill:none;}.cls-2{isolation:isolate;}.cls-3{fill:url(#linear-gradient);}.cls-4{fill:url(#linear-gradient-2);}.cls-5{fill:url(#linear-gradient-3);}.cls-6{fill:url(#linear-gradient-4);}.cls-7{fill:url(#linear-gradient-5);}.cls-8{fill:url(#linear-gradient-6);}.cls-9{fill:url(#Dégradé_sans_nom_2);}.cls-10{fill:url(#linear-gradient-7);}.cls-11{fill:url(#Dégradé_sans_nom_2-2);}.cls-12{fill:#000921;}.cls-13{fill:url(#New_Gradient_Swatch_4);}.cls-14{fill:url(#New_Gradient_Swatch_4-2);}.cls-15{fill:url(#linear-gradient-8);}.cls-16{fill:url(#radial-gradient);}.cls-17{fill:#b2b5bc;mix-blend-mode:multiply;}.cls-18{fill:url(#New_Gradient_Swatch_2);}.cls-19{fill:url(#New_Gradient_Swatch_2-3);}.cls-20{fill:url(#New_Gradient_Swatch_2-4);}.cls-21{fill:url(#New_Gradient_Swatch_2-5);}.cls-22{fill:url(#New_Gradient_Swatch_2-6);}.cls-23{fill:url(#New_Gradient_Swatch_2-7);}.cls-24{fill:url(#New_Gradient_Swatch_2-8);}.cls-25{fill:url(#New_Gradient_Swatch_2-9);}.cls-26{fill:url(#New_Gradient_Swatch_2-10);}.cls-27{clip-path:url(#clip-path);}.cls-28{clip-path:url(#clip-path-2);}.cls-29{fill:#131820;}.cls-30{clip-path:url(#clip-path-3);}.cls-31{fill:#262720;}.cls-32{clip-path:url(#clip-path-4);}.cls-33{fill:#39361f;}.cls-34{clip-path:url(#clip-path-5);}.cls-35{fill:#4c461e;}.cls-36{clip-path:url(#clip-path-6);}.cls-37{fill:#5f551d;}.cls-38{clip-path:url(#clip-path-7);}.cls-39{fill:#72641d;}.cls-40{clip-path:url(#clip-path-8);}.cls-41{fill:#85731c;}.cls-42{clip-path:url(#clip-path-9);}.cls-43{fill:#98821b;}.cls-44{clip-path:url(#clip-path-10);}.cls-45{fill:#ab911a;}.cls-46{clip-path:url(#clip-path-11);}.cls-47{fill:#bea11a;}.cls-48{clip-path:url(#clip-path-12);}.cls-49{fill:#d0b019;}.cls-50{clip-path:url(#clip-path-13);}.cls-51{fill:#e3bf18;}.cls-52{clip-path:url(#clip-path-14);}.cls-53{fill:#f6ce17;}.cls-54{clip-path:url(#clip-path-15);}.cls-55{fill:#e53527;}.cls-56{fill:url(#linear-gradient-9);}.cls-57{fill:url(#linear-gradient-10);}.cls-58{fill:#192237;}.cls-59{fill:#1b263a;}.cls-60{fill:#1c2a3d;}.cls-61{fill:#1e2e40;}.cls-62{fill:#1f3243;}.cls-63{fill:#203645;}.cls-64{fill:#223a48;}.cls-65{fill:#233e4b;}.cls-66{fill:#24424e;}.cls-67{fill:#264651;}.cls-68{fill:#274a54;}.cls-69{fill:#284e57;}.cls-70{fill:#2a5259;}.cls-71{fill:#2b565c;}.cls-72{fill:#2c5a5f;}.cls-73{fill:#2e5e62;}.cls-74{fill:#2f6265;}.cls-75{fill:#306668;}.cls-76{fill:#326a6b;}.cls-77{fill:#336e6d;}.cls-78{fill:#347270;}.cls-79{fill:#367673;}.cls-80{fill:#377a76;}.cls-81{fill:#387e79;}.cls-82{fill:#3a827c;}.cls-83{fill:#3b867f;}.cls-84{fill:#3c8a81;}.cls-85{fill:#3e8e84;}.cls-86{fill:#3f9287;}.cls-87{fill:#40968a;}.cls-88{fill:#429a8d;}.cls-89{fill:#439e90;}.cls-90{fill:#44a392;}.cls-91{fill:#46a795;}.cls-92{fill:#47ab98;}.cls-93{fill:#48af9b;}.cls-94{fill:#4ab39e;}.cls-95{fill:#4bb7a1;}.cls-96{fill:#4cbba4;}.cls-97{fill:#4ebfa6;}.cls-98{fill:#4fc3a9;}.cls-99{fill:#50c7ac;}.cls-100{fill:#52cbaf;}.cls-101{fill:#53cfb2;}.cls-102{fill:#54d3b5;}.cls-103{fill:#56d7b8;}.cls-104{fill:#57dbba;}.cls-105{fill:#58dfbd;}.cls-106{fill:#5ae3c0;}.cls-107{fill:#5be7c3;}.cls-108{clip-path:url(#clip-path-16);}.cls-109{clip-path:url(#clip-path-17);}.cls-110{clip-path:url(#clip-path-18);}.cls-111{fill:#00081e;}.cls-112{fill:#0f182e;}.cls-113{stroke:#000;stroke-miterlimit:10;}</style><linearGradient id="linear-gradient" x1="1.35" y1="5.59" x2="20.79" y2="16.81" gradientUnits="userSpaceOnUse"><stop offset="0" stop-color="#e53527"/><stop offset="0.01" stop-color="#e23427"/><stop offset="0.13" stop-color="#a72925"/><stop offset="0.25" stop-color="#741f24"/><stop offset="0.37" stop-color="#4a1723"/><stop offset="0.48" stop-color="#2a1122"/><stop offset="0.6" stop-color="#130d21"/><stop offset="0.7" stop-color="#050a21"/><stop offset="0.79" stop-color="#000921"/></linearGradient><linearGradient id="linear-gradient-2" x1="5.16" y1="4.75" x2="24.6" y2="15.98" xlink:href="#linear-gradient"/><linearGradient id="linear-gradient-3" x1="11.71" y1="2.97" x2="31.15" y2="14.19" xlink:href="#linear-gradient"/><linearGradient id="linear-gradient-4" x1="8.61" y1="3.56" x2="28.05" y2="14.79" xlink:href="#linear-gradient"/><linearGradient id="linear-gradient-5" x1="8.57" y1="7.88" x2="20.47" y2="14.75" xlink:href="#linear-gradient"/><linearGradient id="linear-gradient-6" x1="11.19" y1="6.57" x2="23.09" y2="13.44" xlink:href="#linear-gradient"/><linearGradient id="Dégradé_sans_nom_2" x1="12.11" y1="8.55" x2="23.36" y2="15.04" xlink:href="#linear-gradient"/><linearGradient id="linear-gradient-7" x1="14.17" y1="5.62" x2="26.07" y2="12.49" xlink:href="#linear-gradient"/><linearGradient id="Dégradé_sans_nom_2-2" x1="15.21" y1="7.35" x2="26.46" y2="13.85" xlink:href="#linear-gradient"/><linearGradient id="New_Gradient_Swatch_4" x1="29.52" y1="3.09" x2="39.07" y2="3.09" gradientUnits="userSpaceOnUse"><stop offset="0.13" stop-color="#000921"/><stop offset="0.39" stop-color="#030c24"/><stop offset="0.58" stop-color="#0d152c"/><stop offset="0.76" stop-color="#1d253a"/><stop offset="0.91" stop-color="#333a4d"/></linearGradient><linearGradient id="New_Gradient_Swatch_4-2" x1="15.29" y1="-3.95" x2="22.09" y2="-10.2" gradientTransform="translate(19.34 10.77) rotate(2.6)" xlink:href="#New_Gradient_Swatch_4"/><linearGradient id="linear-gradient-8" x1="33.88" y1="6.47" x2="43" y2="-1.18" gradientUnits="userSpaceOnUse"><stop offset="0.13" stop-color="#000921"/><stop offset="0.26" stop-color="#030a21"/><stop offset="0.36" stop-color="#0d0b21"/><stop offset="0.45" stop-color="#1d0f22"/><stop offset="0.53" stop-color="#341322"/><stop offset="0.61" stop-color="#511923"/><stop offset="0.68" stop-color="#762024"/><stop offset="0.75" stop-color="#a12825"/><stop offset="0.82" stop-color="#d13126"/><stop offset="0.84" stop-color="#e53527"/></linearGradient><radialGradient id="radial-gradient" cx="22.12" cy="17.69" r="26.15" gradientTransform="translate(47.41 21.96) rotate(156.58) scale(1 0.8)" gradientUnits="userSpaceOnUse"><stop offset="0" stop-color="#242b40"/><stop offset="0.07" stop-color="#1d243a"/><stop offset="0.29" stop-color="#0d152c"/><stop offset="0.54" stop-color="#030c24"/><stop offset="0.87" stop-color="#000921"/></radialGradient><linearGradient id="New_Gradient_Swatch_2" x1="37.54" y1="16.66" x2="56.99" y2="27.88" gradientUnits="userSpaceOnUse"><stop offset="0.21" stop-color="#000921"/><stop offset="0.3" stop-color="#050a21"/><stop offset="0.4" stop-color="#130d21"/><stop offset="0.52" stop-color="#2a1122"/><stop offset="0.63" stop-color="#4a1723"/><stop offset="0.75" stop-color="#741f24"/><stop offset="0.87" stop-color="#a72925"/><stop offset="0.99" stop-color="#e23427"/><stop offset="1" stop-color="#e53527"/></linearGradient><linearGradient id="New_Gradient_Swatch_2-3" x1="37.54" y1="19.16" x2="56.99" y2="30.38" xlink:href="#New_Gradient_Swatch_2"/><linearGradient id="New_Gradient_Swatch_2-4" x1="37.07" y1="21.3" x2="56.51" y2="32.53" xlink:href="#New_Gradient_Swatch_2"/><linearGradient id="New_Gradient_Swatch_2-5" x1="36.35" y1="23.45" x2="55.79" y2="34.67" xlink:href="#New_Gradient_Swatch_2"/><linearGradient id="New_Gradient_Swatch_2-6" x1="39.89" y1="24.19" x2="51.79" y2="31.06" xlink:href="#New_Gradient_Swatch_2"/><linearGradient id="New_Gradient_Swatch_2-7" x1="40.96" y1="21.93" x2="52.86" y2="28.8" xlink:href="#New_Gradient_Swatch_2"/><linearGradient id="New_Gradient_Swatch_2-8" x1="41.32" y1="19.43" x2="53.21" y2="26.3" xlink:href="#New_Gradient_Swatch_2"/><linearGradient id="New_Gradient_Swatch_2-9" x1="39.14" y1="22.48" x2="50.39" y2="28.97" xlink:href="#New_Gradient_Swatch_2"/><linearGradient id="New_Gradient_Swatch_2-10" x1="40.21" y1="20.33" x2="51.46" y2="26.83" xlink:href="#New_Gradient_Swatch_2"/><clipPath id="clip-path" transform="translate(-0.67)"><polygon class="cls-1" points="17.38 18.55 17.28 10 27.51 13.78 27.62 22.33 17.38 18.55"/></clipPath><clipPath id="clip-path-2" transform="translate(-0.67)"><polygon class="cls-1" points="17.57 18.43 17.47 10.07 27.47 13.77 27.57 22.13 17.57 18.43"/></clipPath><clipPath id="clip-path-3" transform="translate(-0.67)"><polygon class="cls-1" points="17.76 18.31 17.66 10.14 27.41 13.75 27.52 21.91 17.76 18.31"/></clipPath><clipPath id="clip-path-4" transform="translate(-0.67)"><polygon class="cls-1" points="17.94 18.19 17.84 10.22 27.37 13.74 27.47 21.7 17.94 18.19"/></clipPath><clipPath id="clip-path-5" transform="translate(-0.67)"><polygon class="cls-1" points="18.13 18.07 18.03 10.3 27.32 13.73 27.41 21.5 18.13 18.07"/></clipPath><clipPath id="clip-path-6" transform="translate(-0.67)"><polygon class="cls-1" points="18.34 17.95 18.25 10.38 27.28 13.71 27.37 21.28 18.34 17.95"/></clipPath><clipPath id="clip-path-7" transform="translate(-0.67)"><polygon class="cls-1" points="18.53 17.82 18.44 10.46 27.22 13.7 27.32 21.07 18.53 17.82"/></clipPath><clipPath id="clip-path-8" transform="translate(-0.67)"><polygon class="cls-1" points="18.72 17.7 18.63 10.54 27.17 13.69 27.26 20.86 18.72 17.7"/></clipPath><clipPath id="clip-path-9" transform="translate(-0.67)"><polygon class="cls-1" points="18.9 17.58 18.81 10.61 27.13 13.68 27.21 20.65 18.9 17.58"/></clipPath><clipPath id="clip-path-10" transform="translate(-0.67)"><polygon class="cls-1" points="19.06 17.45 18.98 10.69 27.07 13.68 27.15 20.44 19.06 17.45"/></clipPath><clipPath id="clip-path-11" transform="translate(-0.67)"><polygon class="cls-1" points="19.25 17.33 19.17 10.77 27.03 13.67 27.11 20.23 19.25 17.33"/></clipPath><clipPath id="clip-path-12" transform="translate(-0.67)"><polygon class="cls-1" points="19.46 17.22 19.38 10.85 26.98 13.65 27.06 20.02 19.46 17.22"/></clipPath><clipPath id="clip-path-13" transform="translate(-0.67)"><polygon class="cls-1" points="19.62 17.09 19.55 10.92 26.93 13.64 27 19.82 19.62 17.09"/></clipPath><clipPath id="clip-path-14" transform="translate(-0.67)"><polygon class="cls-1" points="19.83 16.97 19.76 11 26.88 13.63 26.95 19.6 19.83 16.97"/></clipPath><clipPath id="clip-path-15" transform="translate(-0.67)"><polygon class="cls-1" points="21.25 16.33 21.26 13.56 23.69 14.97 23.69 17.74 21.25 16.33"/></clipPath><linearGradient id="linear-gradient-9" x1="20.97" y1="20.26" x2="23.95" y2="12.08" gradientUnits="userSpaceOnUse"><stop offset="0.13" stop-color="#5eb4be"/><stop offset="0.39" stop-color="#61b5bf"/><stop offset="0.59" stop-color="#6bbac3"/><stop offset="0.77" stop-color="#7bc1ca"/><stop offset="0.93" stop-color="#91ccd3"/><stop offset="1" stop-color="#9ed2d8"/></linearGradient><linearGradient id="linear-gradient-10" x1="22.13" y1="16.1" x2="23.48" y2="12.38" gradientUnits="userSpaceOnUse"><stop offset="0.13" stop-color="#5eb4be"/><stop offset="0.33" stop-color="#64b7c0"/><stop offset="0.58" stop-color="#74bec7"/><stop offset="0.87" stop-color="#8fcbd2"/><stop offset="1" stop-color="#9ed2d8"/></linearGradient><clipPath id="clip-path-16" transform="translate(-0.67)"><path class="cls-1" d="M19.09,20.08l1.41-.82a.35.35,0,0,1,.3,0,4.56,4.56,0,0,1,.8.37l-1.41.82a4.56,4.56,0,0,0-.8-.37A.35.35,0,0,0,19.09,20.08Z"/></clipPath><clipPath id="clip-path-17" transform="translate(-0.67)"><path class="cls-1" d="M22.77,21.21,21.37,22a.2.2,0,0,0,.08-.18L22.85,21A.2.2,0,0,1,22.77,21.21Z"/></clipPath><clipPath id="clip-path-18" transform="translate(-0.67)"><path class="cls-1" d="M20.19,20.43l1.41-.82a6.15,6.15,0,0,1,.8.56,1.29,1.29,0,0,1,.45.86l-1.41.82A1.29,1.29,0,0,0,21,21,6.15,6.15,0,0,0,20.19,20.43Z"/></clipPath></defs><title>bird</title><g class="cls-2"><g id="Layer_2" data-name="Layer 2"><g id="Bird_Character" data-name="Bird Character"><g id="Left_Wing" data-name="Left Wing"><path class="cls-3" d="M20.88,14.69,3.85,6a2.89,2.89,0,0,0-2.62.14l-.06,0A.8.8,0,0,0,1.26,7.7l17,8.68a2.89,2.89,0,0,0,2.62-.14l.06,0a.8.8,0,0,0-.09-1.52" transform="translate(-0.67)"/><path class="cls-4" d="M24.69,13.86l-17-8.68A2.89,2.89,0,0,0,5,5.32L5,5.35a.8.8,0,0,0,.09,1.52l17,8.68a2.89,2.89,0,0,0,2.62-.14l.06,0a.8.8,0,0,0-.09-1.52" transform="translate(-0.67)"/><path class="cls-5" d="M31.24,12.07l-17-8.68a2.89,2.89,0,0,0-2.62.14l-.06,0a.8.8,0,0,0,.09,1.52l17,8.68a2.89,2.89,0,0,0,2.62-.14l.06,0a.8.8,0,0,0-.09-1.52" transform="translate(-0.67)"/><path class="cls-6" d="M28.14,12.67,11.11,4a2.89,2.89,0,0,0-2.62.14l-.06,0a.8.8,0,0,0,.09,1.52l17,8.68a2.89,2.89,0,0,0,2.62-.14l.06,0a.8.8,0,0,0-.09-1.52" transform="translate(-0.67)"/><path class="cls-7" d="M20.53,13.46,10.1,8.14a1.77,1.77,0,0,0-1.6.08l0,0a.49.49,0,0,0,.05.93l10.42,5.31a1.77,1.77,0,0,0,1.6-.08l0,0a.49.49,0,0,0-.05-.93" transform="translate(-0.67)"/><path class="cls-8" d="M23.14,12.15,12.72,6.83a1.77,1.77,0,0,0-1.6.08l0,0a.49.49,0,0,0,.05.93l10.42,5.31a1.77,1.77,0,0,0,1.6-.08l0,0a.49.49,0,0,0-.05-.93" transform="translate(-0.67)"/><path class="cls-9" d="M23.41,13.82l-9.86-5A1.67,1.67,0,0,0,12,8.87l0,0a.46.46,0,0,0,.05.88l9.86,5a1.67,1.67,0,0,0,1.52-.08l0,0a.46.46,0,0,0-.05-.88" transform="translate(-0.67)"/><path class="cls-10" d="M26.12,11.19,15.7,5.88A1.77,1.77,0,0,0,14.1,6l0,0a.49.49,0,0,0,.05.93l10.42,5.31a1.77,1.77,0,0,0,1.6-.08l0,0a.49.49,0,0,0-.05-.93" transform="translate(-0.67)"/><path class="cls-11" d="M26.51,12.62l-9.86-5a1.67,1.67,0,0,0-1.51.08l0,0a.46.46,0,0,0,.05.88l9.86,5a1.67,1.67,0,0,0,1.52-.08l0,0a.46.46,0,0,0-.05-.88" transform="translate(-0.67)"/></g><g id="Feather_Top" data-name="Feather Top"><path class="cls-12" d="M30.74,3.36c-1.5.08-.81-.65,1.53-1.62s3.45-1.21,2.46-.54.39.41,3.05-.57,2.78-.8.26.4A25.36,25.36,0,0,1,30.74,3.36Z" transform="translate(-0.67)"/><path class="cls-13" d="M29.63,4.68l6.25-2.37c3.44-1.3,4.23-1.24,1.76.13s-5.3,2.44-6.3,2.37l-1.82-.13" transform="translate(-0.67)"/><path class="cls-14" d="M33.58,5.94l6.35-2.08c3.49-1.14,4.28-1,1.75.21s-5.41,2.2-6.4,2.08l-1.81-.21" transform="translate(-0.67)"/><path class="cls-15" d="M32.52,4.67l7.9-3C44.76,0,45.76.11,42.64,1.85s-6.7,3.08-8,3l-2.3-.17" transform="translate(-0.67)"/><path class="cls-12" d="M37.13,7.58c-.93,1.1.16,1.07,2.43-.07S42.93,5.62,42,5.84s.18-.65,2.43-1.93,1.91-1.43-.76-.33S38.06,6.48,37.13,7.58Z" transform="translate(-0.67)"/></g><g id="Body"><ellipse id="Body-2" data-name="Body" class="cls-16" cx="28.72" cy="17.42" rx="15.57" ry="15.41"/><path class="cls-17" d="M17.66,27.47a.8.8,0,0,0,0,.09,15.6,15.6,0,0,0,3,2.6L23.22,28l-1-4.23S18.26,25.79,17.66,27.47Z" transform="translate(-0.67)"/></g><g id="Right_Wing" data-name="Right Wing"><path class="cls-18" d="M57.07,25.77,40,17.09a2.89,2.89,0,0,0-2.62.14l-.06,0a.8.8,0,0,0,.09,1.52l17,8.68a2.89,2.89,0,0,0,2.62-.14l.06,0a.8.8,0,0,0-.09-1.52" transform="translate(-0.67)"/><path class="cls-18" d="M57.07,25.77,40,17.09a2.89,2.89,0,0,0-2.62.14l-.06,0a.8.8,0,0,0,.09,1.52l17,8.68a2.89,2.89,0,0,0,2.62-.14l.06,0a.8.8,0,0,0-.09-1.52" transform="translate(-0.67)"/><path class="cls-19" d="M57.07,28.27,40,19.59a2.89,2.89,0,0,0-2.62.14l-.06,0a.8.8,0,0,0,.09,1.52l17,8.68a2.89,2.89,0,0,0,2.62-.14l.06,0a.8.8,0,0,0-.09-1.52" transform="translate(-0.67)"/><path class="cls-20" d="M56.6,30.41l-17-8.68a2.89,2.89,0,0,0-2.62.14l-.06,0A.8.8,0,0,0,37,23.42L54,32.1A2.89,2.89,0,0,0,56.63,32l.06,0a.8.8,0,0,0-.09-1.52" transform="translate(-0.67)"/><path class="cls-21" d="M55.88,32.55l-17-8.68a2.89,2.89,0,0,0-2.62.14l-.06,0a.8.8,0,0,0,.09,1.52l17,8.68a2.89,2.89,0,0,0,2.62-.14l.06,0a.8.8,0,0,0-.09-1.52" transform="translate(-0.67)"/><path class="cls-22" d="M51.84,29.77,41.42,24.46a1.77,1.77,0,0,0-1.6.08l0,0a.49.49,0,0,0,.05.93L50.26,30.8a1.77,1.77,0,0,0,1.6-.08l0,0a.49.49,0,0,0-.05-.93" transform="translate(-0.67)"/><path class="cls-23" d="M52.91,27.51,42.49,22.19a1.77,1.77,0,0,0-1.6.08l0,0a.49.49,0,0,0,.05.93l10.42,5.31a1.77,1.77,0,0,0,1.6-.08l0,0a.49.49,0,0,0-.05-.93" transform="translate(-0.67)"/><path class="cls-24" d="M53.27,25,42.84,19.69a1.77,1.77,0,0,0-1.6.08l0,0a.49.49,0,0,0,.05.93L51.69,26a1.77,1.77,0,0,0,1.6-.08l0,0a.49.49,0,0,0-.05-.93" transform="translate(-0.67)"/><path class="cls-25" d="M50.44,27.75l-9.86-5a1.67,1.67,0,0,0-1.51.08l0,0a.46.46,0,0,0,.05.88l9.86,5a1.67,1.67,0,0,0,1.52-.08l0,0a.46.46,0,0,0-.05-.88" transform="translate(-0.67)"/><path class="cls-26" d="M51.51,25.6l-9.86-5a1.67,1.67,0,0,0-1.51.08l0,0a.46.46,0,0,0,.05.88l9.86,5a1.67,1.67,0,0,0,1.52-.08l0,0a.46.46,0,0,0-.05-.88" transform="translate(-0.67)"/></g><g id="Eye"><g id="Eye-2" data-name="Eye"><g class="cls-2"><g class="cls-27"><path class="cls-12" d="M20.73,11.27a2.39,2.39,0,0,0-3.38,2.19,6.1,6.1,0,0,0,3,5.62l3.35,1.77a4,4,0,0,0,.48.22,2.39,2.39,0,0,0,3.38-2.2,6.07,6.07,0,0,0-3-5.61l-3.35-1.77a4,4,0,0,0-.48-.22" transform="translate(-0.67)"/></g></g><g class="cls-2"><g class="cls-28"><path class="cls-29" d="M20.84,11.32a2.34,2.34,0,0,0-3.3,2.14,6,6,0,0,0,2.94,5.48l3.28,1.74a3.89,3.89,0,0,0,.47.21,2.34,2.34,0,0,0,3.31-2.15,6,6,0,0,0-2.95-5.48l-3.28-1.73a3.86,3.86,0,0,0-.47-.21" transform="translate(-0.67)"/></g></g><g class="cls-2"><g class="cls-30"><path class="cls-31" d="M21,11.36a2.28,2.28,0,0,0-3.23,2.1,5.81,5.81,0,0,0,2.87,5.35l3.2,1.69a3.79,3.79,0,0,0,.46.2,2.28,2.28,0,0,0,3.22-2.1,5.81,5.81,0,0,0-2.87-5.35l-3.2-1.69a3.77,3.77,0,0,0-.45-.2" transform="translate(-0.67)"/></g></g><g class="cls-2"><g class="cls-32"><path class="cls-33" d="M21.06,11.41a2.23,2.23,0,0,0-3.15,2,5.67,5.67,0,0,0,2.8,5.22l3.13,1.65a3.65,3.65,0,0,0,.45.2,2.23,2.23,0,0,0,3.14-2,5.67,5.67,0,0,0-2.8-5.22l-3.12-1.65a3.7,3.7,0,0,0-.44-.2" transform="translate(-0.67)"/></g></g><g class="cls-2"><g class="cls-34"><path class="cls-35" d="M21.17,11.46a2.18,2.18,0,0,0-3.07,2,5.54,5.54,0,0,0,2.73,5.09l3,1.61a3.61,3.61,0,0,0,.43.19,2.17,2.17,0,0,0,3.07-2,5.52,5.52,0,0,0-2.73-5.09l-3-1.61a3.58,3.58,0,0,0-.43-.19" transform="translate(-0.67)"/></g></g><g class="cls-2"><g class="cls-36"><path class="cls-37" d="M21.28,11.5a2.12,2.12,0,0,0-3,1.94,5.4,5.4,0,0,0,2.66,5l3,1.57a3.51,3.51,0,0,0,.42.19,2.12,2.12,0,0,0,3-1.94,5.4,5.4,0,0,0-2.66-5l-3-1.57a3.51,3.51,0,0,0-.42-.19" transform="translate(-0.67)"/></g></g><g class="cls-2"><g class="cls-38"><path class="cls-39" d="M21.39,11.55a2.06,2.06,0,0,0-2.91,1.89,5.24,5.24,0,0,0,2.59,4.83L24,19.79a3.42,3.42,0,0,0,.42.19,2.06,2.06,0,0,0,2.91-1.89,5.23,5.23,0,0,0-2.59-4.83L21.8,11.73a3.41,3.41,0,0,0-.41-.18" transform="translate(-0.67)"/></g></g><g class="cls-2"><g class="cls-40"><path class="cls-41" d="M21.49,11.59a2,2,0,0,0-2.83,1.84,5.1,5.1,0,0,0,2.52,4.7L24,19.62a3.32,3.32,0,0,0,.4.18A2,2,0,0,0,27.22,18a5.1,5.1,0,0,0-2.52-4.7L21.9,11.77a3.3,3.3,0,0,0-.4-.18" transform="translate(-0.67)"/></g></g><g class="cls-2"><g class="cls-42"><path class="cls-43" d="M21.6,11.64a2,2,0,0,0-2.76,1.79A5,5,0,0,0,21.3,18L24,19.45a3.23,3.23,0,0,0,.39.18,2,2,0,0,0,2.76-1.79,5,5,0,0,0-2.45-4.57L22,11.82a3.22,3.22,0,0,0-.39-.18" transform="translate(-0.67)"/></g></g><g class="cls-2"><g class="cls-44"><path class="cls-45" d="M21.71,11.69A1.89,1.89,0,0,0,19,13.43a4.83,4.83,0,0,0,2.38,4.44l2.65,1.4a3.15,3.15,0,0,0,.38.17,1.89,1.89,0,0,0,2.67-1.74,4.81,4.81,0,0,0-2.38-4.44l-2.65-1.4a3.13,3.13,0,0,0-.38-.17" transform="translate(-0.67)"/></g></g><g class="cls-2"><g class="cls-46"><path class="cls-47" d="M21.82,11.74a1.84,1.84,0,0,0-2.6,1.69,4.68,4.68,0,0,0,2.31,4.31l2.58,1.36.37.17a1.83,1.83,0,0,0,2.59-1.69,4.68,4.68,0,0,0-2.31-4.31l-2.58-1.36-.37-.16" transform="translate(-0.67)"/></g></g><g class="cls-2"><g class="cls-48"><path class="cls-49" d="M21.93,11.79a1.78,1.78,0,0,0-2.52,1.63,4.53,4.53,0,0,0,2.24,4.18l2.49,1.32.35.16A1.78,1.78,0,0,0,27,17.45a4.55,4.55,0,0,0-2.24-4.19l-2.49-1.31-.36-.16" transform="translate(-0.67)"/></g></g><g class="cls-2"><g class="cls-50"><path class="cls-51" d="M22,11.83a1.72,1.72,0,0,0-2.43,1.59,4.4,4.4,0,0,0,2.18,4.05l2.42,1.28.34.15A1.73,1.73,0,0,0,27,17.32a4.39,4.39,0,0,0-2.17-4L22.38,12,22,11.83" transform="translate(-0.67)"/></g></g><g class="cls-2"><g class="cls-52"><path class="cls-53" d="M22.14,11.88a1.67,1.67,0,0,0-2.36,1.53,4.26,4.26,0,0,0,2.1,3.92l2.34,1.23.34.15a1.67,1.67,0,0,0,2.36-1.53,4.25,4.25,0,0,0-2.1-3.92L22.48,12l-.34-.15" transform="translate(-0.67)"/></g></g><g class="cls-2"><g class="cls-54"><path class="cls-12" d="M23.69,16.33a1.45,1.45,0,0,1,0,.2c-.08.64-.61.84-1.21.49l-.17-.1-.18-.15.18.15.17.11c.6.35,1.13.15,1.21-.5a1.45,1.45,0,0,0,0-.2m-1.22-2.07a1,1,0,0,0-.74-.14,1,1,0,0,1,.74.15l.17.11-.17-.11" transform="translate(-0.67)"/><path class="cls-55" d="M22.46,14.26a1,1,0,0,0-.74-.15.69.69,0,0,0-.47.64,2.61,2.61,0,0,0,.87,2l.18.15.17.1c.6.35,1.13.15,1.21-.49a1.45,1.45,0,0,0,0-.2,2.73,2.73,0,0,0-1.05-2l-.17-.11" transform="translate(-0.67)"/></g></g><path class="cls-17" d="M17.3,13.58l10.17,5.29s-.34-3.18-2.35-4.3S20.36,12.12,20.05,12A2.34,2.34,0,0,0,17.3,13.58Z" transform="translate(-0.67)"/><g class="cls-2"><path class="cls-56" d="M24.19,20.71a3.51,3.51,0,0,1-.44-.2L20.4,18.74a5.27,5.27,0,0,1-2.1-2.18,5.12,5.12,0,0,1-.64-2.93,2.18,2.18,0,0,1,3.08-2,3.65,3.65,0,0,1,.44.2l3.36,1.77a5.26,5.26,0,0,1,2.1,2.18,5.11,5.11,0,0,1,.64,2.93,2.18,2.18,0,0,1-3.08,2m-3.46-9.8A2.62,2.62,0,0,0,17,13.3a6.14,6.14,0,0,0,.77,3.51,6.3,6.3,0,0,0,2.51,2.61l3.36,1.77a4.36,4.36,0,0,0,.52.23A2.61,2.61,0,0,0,27.89,19a6.12,6.12,0,0,0-.77-3.51,6.31,6.31,0,0,0-2.51-2.61l-3.36-1.77a4.34,4.34,0,0,0-.52-.23" transform="translate(-0.67)"/></g></g><path class="cls-57" d="M17.3,12.75,27.47,18s-.34-3.18-2.35-4.3-4.76-2.45-5.07-2.61A2.34,2.34,0,0,0,17.3,12.75Z" transform="translate(-0.67)"/></g><g id="Beak"><g class="cls-2"><path class="cls-12" d="M21.73,20.73c-1.56-1.21-3.05-.65-3.32,1.27a6.77,6.77,0,0,0,2.34,5.67c1.56,1.21,3.05.65,3.32-1.27a6.77,6.77,0,0,0-2.34-5.67" transform="translate(-0.67)"/></g><g id="Beak-2" data-name="Beak"><g class="cls-2"><path class="cls-58" d="M21.47,21.14c-1.41-1.1-2.76-.59-3,1.15a6.12,6.12,0,0,0,2.12,5.14c1.41,1.1,2.76.59,3-1.15a6.12,6.12,0,0,0-2.12-5.14" transform="translate(-0.67)"/></g><path class="cls-59" d="M21.27,21.28c-1.39-1.08-2.71-.58-3,1.13a6,6,0,0,0,2.08,5c1.39,1.08,2.71.58,3-1.13a6,6,0,0,0-2.08-5" transform="translate(-0.67)"/><path class="cls-60" d="M21.06,21.42c-1.36-1.06-2.66-.56-2.9,1.11a5.9,5.9,0,0,0,2,5c1.36,1.06,2.66.56,2.9-1.11a5.9,5.9,0,0,0-2-5" transform="translate(-0.67)"/><path class="cls-61" d="M20.86,21.57c-1.34-1-2.61-.55-2.84,1.09a5.79,5.79,0,0,0,2,4.86c1.34,1,2.61.55,2.84-1.09a5.79,5.79,0,0,0-2-4.86" transform="translate(-0.67)"/><path class="cls-62" d="M20.65,21.71c-1.31-1-2.56-.54-2.79,1.07a5.68,5.68,0,0,0,2,4.77c1.31,1,2.56.54,2.79-1.07a5.68,5.68,0,0,0-2-4.77" transform="translate(-0.67)"/><path class="cls-63" d="M20.45,21.85c-1.29-1-2.51-.53-2.74,1a5.57,5.57,0,0,0,1.93,4.67c1.29,1,2.51.53,2.74-1a5.57,5.57,0,0,0-1.93-4.67" transform="translate(-0.67)"/><path class="cls-64" d="M20.24,22c-1.26-1-2.46-.52-2.68,1a5.46,5.46,0,0,0,1.89,4.58c1.26,1,2.46.52,2.68-1A5.46,5.46,0,0,0,20.24,22" transform="translate(-0.67)"/><path class="cls-65" d="M20,22.13c-1.24-1-2.41-.51-2.63,1a5.35,5.35,0,0,0,1.85,4.49c1.24,1,2.41.51,2.63-1A5.35,5.35,0,0,0,20,22.13" transform="translate(-0.67)"/><path class="cls-66" d="M19.84,22.27c-1.21-.94-2.36-.5-2.57,1a5.24,5.24,0,0,0,1.81,4.4c1.21.94,2.36.5,2.57-1a5.24,5.24,0,0,0-1.81-4.4" transform="translate(-0.67)"/><path class="cls-67" d="M19.63,22.41c-1.19-.92-2.31-.49-2.52,1a5.13,5.13,0,0,0,1.78,4.3c1.19.92,2.31.49,2.52-1a5.13,5.13,0,0,0-1.78-4.31" transform="translate(-0.67)"/><path class="cls-68" d="M19.43,22.55c-1.16-.9-2.26-.48-2.47.94A5,5,0,0,0,18.7,27.7c1.16.9,2.26.48,2.47-.94a5,5,0,0,0-1.74-4.21" transform="translate(-0.67)"/><path class="cls-69" d="M19.22,22.69c-1.13-.88-2.21-.47-2.41.92a4.91,4.91,0,0,0,1.7,4.12c1.13.88,2.22.47,2.41-.92a4.91,4.91,0,0,0-1.7-4.12" transform="translate(-0.67)"/><path class="cls-70" d="M19,22.83c-1.11-.86-2.17-.46-2.36.9a4.8,4.8,0,0,0,1.66,4c1.11.86,2.17.46,2.36-.9a4.8,4.8,0,0,0-1.66-4" transform="translate(-0.67)"/><path class="cls-71" d="M18.82,23c-1.08-.84-2.12-.45-2.3.88a4.69,4.69,0,0,0,1.62,3.94c1.08.84,2.12.45,2.3-.88A4.69,4.69,0,0,0,18.82,23" transform="translate(-0.67)"/><path class="cls-72" d="M18.61,23.11c-1.06-.82-2.07-.44-2.25.86a4.58,4.58,0,0,0,1.59,3.84c1.06.82,2.07.44,2.25-.86a4.58,4.58,0,0,0-1.59-3.84" transform="translate(-0.67)"/><path class="cls-73" d="M18.41,23.25c-1-.8-2-.43-2.2.84a4.47,4.47,0,0,0,1.55,3.75c1,.8,2,.43,2.2-.84a4.47,4.47,0,0,0-1.55-3.75" transform="translate(-0.67)"/><path class="cls-74" d="M18.2,23.39c-1-.78-2-.42-2.14.82a4.36,4.36,0,0,0,1.51,3.66c1,.78,2,.42,2.14-.82a4.36,4.36,0,0,0-1.51-3.66" transform="translate(-0.67)"/><path class="cls-75" d="M18,23.53c-1-.76-1.92-.41-2.09.8a4.25,4.25,0,0,0,1.47,3.57c1,.76,1.92.41,2.09-.8A4.25,4.25,0,0,0,18,23.53" transform="translate(-0.67)"/><path class="cls-76" d="M17.79,23.67c-1-.74-1.87-.4-2,.78a4.14,4.14,0,0,0,1.43,3.47c1,.74,1.87.4,2-.78a4.14,4.14,0,0,0-1.43-3.47" transform="translate(-0.67)"/><path class="cls-77" d="M17.59,23.81c-.93-.72-1.82-.39-2,.76A4,4,0,0,0,17,27.95c.93.72,1.82.39,2-.76a4,4,0,0,0-1.4-3.38" transform="translate(-0.67)"/><path class="cls-78" d="M17.39,23.95c-.91-.7-1.77-.37-1.93.74A3.92,3.92,0,0,0,16.82,28c.91.7,1.77.38,1.93-.74a3.92,3.92,0,0,0-1.36-3.29" transform="translate(-0.67)"/><path class="cls-79" d="M17.18,24.09c-.88-.68-1.72-.36-1.87.72A3.81,3.81,0,0,0,16.63,28c.88.68,1.72.36,1.87-.72a3.81,3.81,0,0,0-1.32-3.2" transform="translate(-0.67)"/><path class="cls-80" d="M17,24.23c-.85-.66-1.67-.35-1.82.7A3.7,3.7,0,0,0,16.44,28c.86.66,1.67.35,1.82-.7A3.7,3.7,0,0,0,17,24.23" transform="translate(-0.67)"/><path class="cls-81" d="M16.77,24.37c-.83-.64-1.62-.34-1.76.68a3.59,3.59,0,0,0,1.24,3c.83.65,1.62.34,1.76-.68a3.59,3.59,0,0,0-1.24-3" transform="translate(-0.67)"/><path class="cls-82" d="M16.57,24.51c-.8-.63-1.57-.33-1.71.66a3.48,3.48,0,0,0,1.21,2.92c.8.63,1.57.33,1.71-.65a3.48,3.48,0,0,0-1.21-2.92" transform="translate(-0.67)"/><path class="cls-83" d="M16.36,24.65c-.78-.61-1.52-.32-1.66.63a3.37,3.37,0,0,0,1.17,2.83c.78.61,1.52.32,1.66-.63a3.37,3.37,0,0,0-1.17-2.83" transform="translate(-0.67)"/><path class="cls-84" d="M16.16,24.79c-.75-.59-1.47-.31-1.6.61a3.26,3.26,0,0,0,1.13,2.74c.75.59,1.47.31,1.6-.61a3.26,3.26,0,0,0-1.13-2.74" transform="translate(-0.67)"/><path class="cls-85" d="M16,24.93c-.73-.57-1.42-.3-1.55.59a3.15,3.15,0,0,0,1.09,2.64c.73.57,1.42.3,1.55-.59A3.15,3.15,0,0,0,16,24.93" transform="translate(-0.67)"/><path class="cls-86" d="M15.75,25.07c-.7-.55-1.37-.29-1.49.57a3,3,0,0,0,1.05,2.55c.7.55,1.37.29,1.49-.57a3,3,0,0,0-1.05-2.55" transform="translate(-0.67)"/><path class="cls-87" d="M15.55,25.21c-.68-.53-1.32-.28-1.44.55a2.93,2.93,0,0,0,1,2.46c.68.53,1.32.28,1.44-.55a2.93,2.93,0,0,0-1-2.46" transform="translate(-0.67)"/><path class="cls-88" d="M15.34,25.35c-.65-.51-1.27-.27-1.38.53a2.82,2.82,0,0,0,1,2.37c.65.51,1.27.27,1.39-.53a2.82,2.82,0,0,0-1-2.37" transform="translate(-0.67)"/><path class="cls-89" d="M15.14,25.49c-.63-.49-1.22-.26-1.33.51a2.71,2.71,0,0,0,.94,2.27c.63.49,1.22.26,1.33-.51a2.71,2.71,0,0,0-.94-2.28" transform="translate(-0.67)"/><path class="cls-90" d="M14.94,25.63c-.6-.47-1.17-.25-1.28.49a2.6,2.6,0,0,0,.9,2.18c.6.47,1.17.25,1.28-.49a2.6,2.6,0,0,0-.9-2.18" transform="translate(-0.67)"/><path class="cls-91" d="M14.73,25.77c-.58-.45-1.12-.24-1.22.47a2.49,2.49,0,0,0,.86,2.09c.58.45,1.12.24,1.22-.47a2.49,2.49,0,0,0-.86-2.09" transform="translate(-0.67)"/><path class="cls-92" d="M14.53,25.91c-.55-.43-1.07-.23-1.17.45a2.38,2.38,0,0,0,.82,2c.55.43,1.07.23,1.17-.45a2.38,2.38,0,0,0-.82-2" transform="translate(-0.67)"/><path class="cls-93" d="M14.32,26.05c-.52-.41-1-.22-1.11.43A2.27,2.27,0,0,0,14,28.38c.53.41,1,.22,1.12-.43a2.27,2.27,0,0,0-.79-1.91" transform="translate(-0.67)"/><path class="cls-94" d="M14.12,26.19c-.5-.39-1-.21-1.06.41a2.16,2.16,0,0,0,.75,1.81c.5.39,1,.21,1.06-.41a2.16,2.16,0,0,0-.75-1.81" transform="translate(-0.67)"/><path class="cls-95" d="M13.91,26.33c-.47-.37-.92-.2-1,.39a2.05,2.05,0,0,0,.71,1.72c.47.37.93.2,1-.39a2.05,2.05,0,0,0-.71-1.72" transform="translate(-0.67)"/><path class="cls-96" d="M13.71,26.47c-.45-.35-.88-.19-1,.37a1.94,1.94,0,0,0,.67,1.63c.45.35.88.19,1-.37a1.94,1.94,0,0,0-.67-1.63" transform="translate(-0.67)"/><path class="cls-97" d="M13.51,26.61c-.42-.33-.83-.17-.9.34a1.83,1.83,0,0,0,.63,1.54c.42.33.83.18.9-.34a1.83,1.83,0,0,0-.63-1.54" transform="translate(-0.67)"/><path class="cls-98" d="M13.3,26.75c-.4-.31-.78-.16-.84.32a1.72,1.72,0,0,0,.6,1.44c.4.31.78.16.85-.32a1.72,1.72,0,0,0-.6-1.44" transform="translate(-0.67)"/><path class="cls-99" d="M13.1,26.89c-.37-.29-.73-.15-.79.3a1.61,1.61,0,0,0,.56,1.35c.37.29.73.15.79-.3a1.61,1.61,0,0,0-.56-1.35" transform="translate(-0.67)"/><path class="cls-100" d="M12.89,27c-.35-.27-.68-.14-.74.28a1.5,1.5,0,0,0,.52,1.26c.35.27.68.14.74-.28A1.5,1.5,0,0,0,12.89,27" transform="translate(-0.67)"/><path class="cls-101" d="M12.69,27.17c-.32-.25-.63-.13-.68.26a1.39,1.39,0,0,0,.48,1.17c.32.25.63.13.68-.26a1.39,1.39,0,0,0-.48-1.17" transform="translate(-0.67)"/><path class="cls-102" d="M12.48,27.31c-.3-.23-.58-.12-.63.24a1.28,1.28,0,0,0,.44,1.07c.3.23.58.12.63-.24a1.28,1.28,0,0,0-.44-1.08" transform="translate(-0.67)"/><path class="cls-103" d="M12.28,27.45c-.27-.21-.53-.11-.57.22a1.17,1.17,0,0,0,.41,1c.27.21.53.11.58-.22a1.17,1.17,0,0,0-.41-1" transform="translate(-0.67)"/><path class="cls-104" d="M12.08,27.59c-.24-.19-.48-.1-.52.2a1.06,1.06,0,0,0,.37.89c.25.19.48.1.52-.2a1.06,1.06,0,0,0-.37-.89" transform="translate(-0.67)"/><path class="cls-105" d="M11.87,27.73c-.22-.17-.43-.09-.47.18a1,1,0,0,0,.33.8c.22.17.43.09.47-.18a1,1,0,0,0-.33-.8" transform="translate(-0.67)"/><path class="cls-106" d="M11.67,27.87c-.19-.15-.38-.08-.41.16a.84.84,0,0,0,.29.71c.19.15.38.08.41-.16a.84.84,0,0,0-.29-.71" transform="translate(-0.67)"/><g class="cls-2"><path class="cls-107" d="M11.46,28c-.17-.13-.33-.07-.36.14a.73.73,0,0,0,.25.61c.17.13.33.07.36-.14a.73.73,0,0,0-.25-.61" transform="translate(-0.67)"/></g><g class="cls-2"><g class="cls-2"><g class="cls-108"><g class="cls-2"><path class="cls-12" d="M19.09,20.08l1.41-.82a.35.35,0,0,1,.3,0,4.56,4.56,0,0,1,.8.37l-1.41.82a4.56,4.56,0,0,0-.8-.37.35.35,0,0,0-.3,0" transform="translate(-0.67)"/></g></g></g><g class="cls-2"><g class="cls-109"><g class="cls-2"><path class="cls-12" d="M21.44,21.85,22.85,21a.2.2,0,0,1-.08.18L21.37,22a.2.2,0,0,0,.08-.18" transform="translate(-0.67)"/></g></g></g><g class="cls-2"><g class="cls-110"><g class="cls-2"><path class="cls-12" d="M20.19,20.43l1.41-.82a6.15,6.15,0,0,1,.8.56,1.29,1.29,0,0,1,.45.86l-1.41.82A1.29,1.29,0,0,0,21,21a6.15,6.15,0,0,0-.8-.56" transform="translate(-0.67)"/></g></g></g><path class="cls-111" d="M20.19,20.43A6.15,6.15,0,0,1,21,21a1.29,1.29,0,0,1,.45.86c0,.21-.14.25-.34.14L21,21.9a6,6,0,0,0-.79-.55,4.47,4.47,0,0,0-.8-.37l-.12-.06a.66.66,0,0,1-.34-.54.33.33,0,0,1,.46-.34A4.56,4.56,0,0,1,20.19,20.43Z" transform="translate(-0.67)"/></g><ellipse class="cls-12" cx="21.19" cy="23.17" rx="0.36" ry="0.49" transform="translate(-10.87 22.62) rotate(-46.56)"/><path class="cls-12" d="M18.38,21.57l-.16.14-.16.14-.12.11h.18c.27,0,.48-.2.46-.4a.28.28,0,0,0-.05-.14Z" transform="translate(-0.67)"/></g></g><g id="Body_Texture" data-name="Body Texture"><path class="cls-58" d="M40.84,13.73c-.09.84-.74,1.43-1.3,1.33a1.55,1.55,0,0,1-1.11-1.32,1.22,1.22,0,0,1,1.11-1.33A1.13,1.13,0,0,1,40.84,13.73Z" transform="translate(-0.67)"/><path class="cls-58" d="M38.35,12.64c-.11.68-.56,1-.83.9a1.73,1.73,0,0,1-.64-.85c-.1-.29.15-.66.64-.9S38.46,12,38.35,12.64Z" transform="translate(-0.67)"/><path class="cls-58" d="M38.53,14.94c.06.65-.46,1-.82.85a.79.79,0,0,1-.42-.88c.07-.35.17-.74.42-.85S38.47,14.29,38.53,14.94Z" transform="translate(-0.67)"/><path class="cls-112" d="M31.89,31.22a.61.61,0,0,1-.66.6.67.67,0,0,1-.67-.59c0-.26.31-.41.66-.44S31.86,30.91,31.89,31.22Z" transform="translate(-0.67)"/><path class="cls-112" d="M31.07,30.18c0,.26-.26.4-.56.38S30,30.4,30,30.18a.56.56,0,0,1,.56-.5A.51.51,0,0,1,31.07,30.18Z" transform="translate(-0.67)"/><path class="cls-112" d="M33,30.2a1.41,1.41,0,0,1-.84.63c-.33.09-.7-.19-.86-.67s.23-.87.84-.75S33.15,29.92,33,30.2Z" transform="translate(-0.67)"/><path class="cls-58" d="M15.85,19.34c0,.39-.28.62-.5.52a.48.48,0,0,1-.25-.53c0-.21.1-.44.25-.52S15.81,19,15.85,19.34Z" transform="translate(-0.67)"/><path class="cls-58" d="M16,18.38a.27.27,0,0,1-.27.34.31.31,0,0,1-.33-.34.39.39,0,0,1,.33-.34C15.89,18,16,18.2,16,18.38Z" transform="translate(-0.67)"/><path class="cls-58" d="M15.28,18.5a.36.36,0,0,1-.36.46.41.41,0,0,1-.44-.46.53.53,0,0,1,.44-.46C15.1,18,15.24,18.25,15.28,18.5Z" transform="translate(-0.67)"/></g><path class="cls-113" d="M0,40" transform="translate(-0.67)"/></g></g></g></svg>