<svg xmlns="http://www.w3.org/2000/svg" viewBox="0 0 612.46 612.24"><defs><style>.cls-1{fill:#ffd802;stroke:#8eff00;stroke-miterlimit:10;}</style></defs><title>sun</title><g id="Layer_2" data-name="Layer 2"><g id="Layer_1-2" data-name="Layer 1"><polygon class="cls-1" points="538.23 506.12 415.14 413.8 508.84 535.85 399.46 427.63 475.67 561.29 382.05 439.19 439.34 581.99 363.22 448.27 400.54 597.55 343.33 454.71 359.98 607.67 322.75 458.38 318.42 612.18 301.87 459.21 276.63 610.99 281.06 457.19 235.39 604.12 260.72 452.36 195.47 591.7 241.24 444.8 157.62 573.96 222.96 434.65 122.53 551.23 206.23 422.12 90.86 523.93 191.37 407.42 63.21 492.57 178.64 390.84 40.09 457.75 168.29 372.68 21.92 420.1 160.52 353.27 9.05 380.32 155.45 332.99 1.71 339.16 153.2 312.21 0.05 297.39 153.79 291.32 4.09 255.78 157.23 270.7 13.76 215.1 163.44 250.74 28.88 176.13 172.31 231.81 49.16 139.57 183.68 214.27 74.23 106.12 197.32 198.44 103.63 76.39 213 184.61 136.79 50.94 230.42 173.05 173.12 30.25 249.24 163.96 211.92 14.69 269.13 157.53 252.48 4.56 289.71 153.86 294.05 0.05 310.6 153.03 335.83 1.25 331.4 155.05 377.07 8.12 351.74 159.88 416.99 20.54 371.23 167.44 454.85 38.28 389.5 177.58 489.93 61.01 406.23 190.12 521.6 88.31 421.1 204.81 549.25 119.66 433.82 221.4 572.38 154.49 444.17 239.56 590.54 192.14 451.94 258.96 603.41 231.92 457.01 279.25 610.75 273.07 459.26 300.03 612.41 314.85 458.67 320.92 608.37 356.46 455.23 341.54 598.7 397.13 449.02 361.5 583.59 436.11 440.15 380.43 563.3 472.67 428.79 397.97 538.23 506.12"/></g></g></svg>